<svg version="1.1" xmlns="http://www.w3.org/2000/svg" xmlns:xlink="http://www.w3.org/1999/xlink" preserveAspectRatio="xMidYMid meet" viewBox="0 0 312 287" id="H19xUQQem"><style>@-webkit-keyframes ry4Z5gIQ7xQ_S1JieImeX_Animation{0%{-webkit-transform: rotate(0deg);transform: rotate(0deg);}50%{-webkit-transform: rotate(90deg);transform: rotate(90deg);}100%{-webkit-transform: rotate(0deg);transform: rotate(0deg);}}@keyframes ry4Z5gIQ7xQ_S1JieImeX_Animation{0%{-webkit-transform: rotate(0deg);transform: rotate(0deg);}50%{-webkit-transform: rotate(90deg);transform: rotate(90deg);}100%{-webkit-transform: rotate(0deg);transform: rotate(0deg);}}@-webkit-keyframes HygeqlImXe7_HysEe8XlX_Animation{0%{-webkit-transform: rotate(90deg);transform: rotate(90deg);}50%{-webkit-transform: rotate(0deg);transform: rotate(0deg);}100%{-webkit-transform: rotate(90deg);transform: rotate(90deg);}}@keyframes HygeqlImXe7_HysEe8XlX_Animation{0%{-webkit-transform: rotate(90deg);transform: rotate(90deg);}50%{-webkit-transform: rotate(0deg);transform: rotate(0deg);}100%{-webkit-transform: rotate(90deg);transform: rotate(90deg);}}#H19xUQQem *{-webkit-animation-duration: 3s;animation-duration: 3s;-webkit-animation-timing-function: cubic-bezier(0, 0, 1, 1);animation-timing-function: cubic-bezier(0, 0, 1, 1);}#SJG9gUX7gQ{opacity: 1;fill: #000000;fill-opacity: 0;}#rJE5e8XQxm{opacity: 1;fill-opacity: 0;stroke: #000000;stroke-width: 1;stroke-opacity: 0;}#BJU9gImXg7{opacity: 1;fill: #000000;fill-opacity: 0;}#Byuqx8X7lX{opacity: 1;fill-opacity: 0;stroke: #000000;stroke-width: 1;stroke-opacity: 0;}#H1cqgUQ7g7{opacity: 1;fill: #000000;fill-opacity: 0;}#BJ2ceUXQgQ{opacity: 1;fill-opacity: 0;stroke: #000000;stroke-width: 1;stroke-opacity: 0;}#rkRcxIQmem{opacity: 1;fill: #000000;fill-opacity: 0;}#HygeqlImXe7{opacity: 1;fill-opacity: 0;stroke: #3c3f35;stroke-width: 10;stroke-opacity: 1;}#HJGeqxUmQem{opacity: 1;fill: #000000;fill-opacity: 0;}#BkExcxImXxX{opacity: 1;fill-opacity: 0;stroke: #000000;stroke-width: 1;stroke-opacity: 0;}#SkLgcxL7mxQ{opacity: 1;fill: #000000;fill-opacity: 0;}#r1uxclLm7xQ{opacity: 1;fill-opacity: 0;stroke: #000000;stroke-width: 1;stroke-opacity: 0;}#B15g9eLm7lQ{opacity: 1;fill: #000000;fill-opacity: 0;}#Hy3gcgL77em{opacity: 1;fill-opacity: 0;stroke: #000000;stroke-width: 1;stroke-opacity: 0;}#S1Al9eLQ7eX{opacity: 1;fill: #3c3f35;fill-opacity: 1;}#ryeb9gLXXlX{opacity: 1;fill: #3c3f35;fill-opacity: 1;}#HJMZcl8Q7lQ{opacity: 1;fill: #000000;fill-opacity: 0;}#ry4Z5gIQ7xQ{opacity: 1;fill-opacity: 0;stroke: #4c4c4c;stroke-width: 10;stroke-opacity: 1;}#HygeqlImXe7_HysEe8XlX{-webkit-animation-name: HygeqlImXe7_HysEe8XlX_Animation;animation-name: HygeqlImXe7_HysEe8XlX_Animation;-webkit-transform-origin: 50% 50%;transform-origin: 50% 50%;transform-box: fill-box;-webkit-transform: rotate(90deg);transform: rotate(90deg);}#ry4Z5gIQ7xQ_S1JieImeX{-webkit-animation-name: ry4Z5gIQ7xQ_S1JieImeX_Animation;animation-name: ry4Z5gIQ7xQ_S1JieImeX_Animation;-webkit-transform-origin: 50% 50%;transform-origin: 50% 50%;transform-box: fill-box;-webkit-transform: rotate(0deg);transform: rotate(0deg);}</style><defs><path d="M244.96 410.67C207.19 391.24 208.54 313.19 247.98 236.34C287.41 159.48 350 112.93 387.77 132.36C425.54 151.79 424.19 229.84 384.75 306.7C345.31 383.55 282.73 430.1 244.96 410.67Z" id="b2E8hXj0fA"/><path d="M244.96 410.67C207.19 391.24 208.54 313.19 247.98 236.34C287.41 159.48 350 112.93 387.77 132.36C425.54 151.79 424.19 229.84 384.75 306.7C345.31 383.55 282.73 430.1 244.96 410.67Z" id="e7yNnDaz86"/><path d="M244.96 410.67C207.19 391.24 208.54 313.19 247.98 236.34C287.41 159.48 350 112.93 387.77 132.36C425.54 151.79 424.19 229.84 384.75 306.7C345.31 383.55 282.73 430.1 244.96 410.67Z" id="b4077hGqV2"/><path d="M244.96 410.67C207.19 391.24 208.54 313.19 247.98 236.34C287.41 159.48 350 112.93 387.77 132.36C425.54 151.79 424.19 229.84 384.75 306.7C345.31 383.55 282.73 430.1 244.96 410.67Z" id="b1MLeDJDD2"/><path d="M157.05 280.79C157.05 238.27 227.01 203.8 313.3 203.8C399.59 203.8 469.55 238.27 469.55 280.79C469.55 323.3 399.59 357.77 313.3 357.77C227.01 357.77 157.05 323.3 157.05 280.79Z" id="cScmbmtVV"/><path d="M157.05 280.79C157.05 238.27 227.01 203.8 313.3 203.8C399.59 203.8 469.55 238.27 469.55 280.79C469.55 323.3 399.59 357.77 313.3 357.77C227.01 357.77 157.05 323.3 157.05 280.79Z" id="fuspXXj3p"/><path d="M157.05 280.79C157.05 238.27 227.01 203.8 313.3 203.8C399.59 203.8 469.55 238.27 469.55 280.79C469.55 323.3 399.59 357.77 313.3 357.77C227.01 357.77 157.05 323.3 157.05 280.79Z" id="fd1owfALR"/><text id="afSwxlc4b" x="197.8" y="185.41" font-size="39" font-family="Open Sans" font-weight="400" font-style="normal" letter-spacing="0" alignment-baseline="before-edge" transform="matrix(1 0 0 1 51.96540759468337 20.506682903284798)" style="line-height:100%" xml:space="preserve" dominant-baseline="text-before-edge"><tspan x="197.8" dy="0em" alignment-baseline="before-edge" dominant-baseline="text-before-edge" text-anchor="start">　</tspan></text><text id="bloImeQ3" x="197.8" y="185.41" font-size="35" font-family="Montserrat" font-weight="400" font-style="normal" letter-spacing="0" alignment-baseline="before-edge" transform="matrix(1 0 0 1 48.96540759468337 71.5066829032848)" style="line-height:100%" xml:space="preserve" dominant-baseline="text-before-edge"><tspan x="197.8" dy="0em" alignment-baseline="before-edge" dominant-baseline="text-before-edge" text-anchor="start">BTS-CE</tspan></text><path d="M157.05 280.79C157.05 238.27 227.01 203.8 313.3 203.8C399.59 203.8 469.55 238.27 469.55 280.79C469.55 323.3 399.59 357.77 313.3 357.77C227.01 357.77 157.05 323.3 157.05 280.79Z" id="e1tDIN59z"/></defs><g id="B1eqeIQQem"><g id="B1-ceI7Xg7"><use xlink:href="#b2E8hXj0fA" id="SJG9gUX7gQ"/><g id="HkXcxIm7eX"><use xlink:href="#b2E8hXj0fA" id="rJE5e8XQxm"/></g></g><g id="BkS9gU7meX"><use xlink:href="#e7yNnDaz86" id="BJU9gImXg7"/><g id="rkwcxUQmgm"><use xlink:href="#e7yNnDaz86" id="Byuqx8X7lX"/></g></g><g id="BkY9eI7ml7"><use xlink:href="#b4077hGqV2" id="H1cqgUQ7g7"/><g id="B1i9xLQmgQ"><use xlink:href="#b4077hGqV2" id="BJ2ceUXQgQ"/></g></g><g id="rJT5eI77xX"><use xlink:href="#b1MLeDJDD2" id="rkRcxIQmem"/><g id="B1Jgcg8XXlm"><g id="HygeqlImXe7_HysEe8XlX" data-animator-group="true" data-animator-type="1"><use xlink:href="#b1MLeDJDD2" id="HygeqlImXe7"/></g></g></g><g id="Bkbeqx8X7xm"><use xlink:href="#cScmbmtVV" id="HJGeqxUmQem"/><g id="SyQl5x877lQ"><use xlink:href="#cScmbmtVV" id="BkExcxImXxX"/></g></g><g id="HJSe9xUmXxQ"><use xlink:href="#fuspXXj3p" id="SkLgcxL7mxQ"/><g id="BJDg5l8XQx7"><use xlink:href="#fuspXXj3p" id="r1uxclLm7xQ"/></g></g><g id="SJFlqeIQQlX"><use xlink:href="#fd1owfALR" id="B15g9eLm7lQ"/><g id="Hyix5xImXxQ"><use xlink:href="#fd1owfALR" id="Hy3gcgL77em"/></g></g><g id="S16gcxL7mxQ"><use xlink:href="#afSwxlc4b" id="S1Al9eLQ7eX"/></g><g id="ryJbqeUm7lQ"><use xlink:href="#bloImeQ3" id="ryeb9gLXXlX"/></g><g id="HyZZ5lU77gm"><use xlink:href="#e1tDIN59z" id="HJMZcl8Q7lQ"/><g id="HJXbqxLQQxX"><g id="ry4Z5gIQ7xQ_S1JieImeX" data-animator-group="true" data-animator-type="1"><use xlink:href="#e1tDIN59z" id="ry4Z5gIQ7xQ"/></g></g></g></g><script>(function(){var a=document.querySelector('#H19xUQQem'),b=a.querySelectorAll('style'),c=function(d){b.forEach(function(f){var g=f.textContent;g&amp;&amp;(f.textContent=g.replace(/transform-box:[^;\r\n]*/gi,'transform-box: '+d))})};c('initial'),window.requestAnimationFrame(function(){return c('fill-box')})})();</script></svg>